<svg width="378" height="40" viewBox="0 0 378 40" fill="none" xmlns="http://www.w3.org/2000/svg">
<path d="M40.3829 13.8852C40.1564 13.6651 39.8387 13.5651 39.5277 13.6163C39.2162 13.6672 38.9472 13.8628 38.8027 14.1434C38.3057 15.1089 37.6745 15.9961 36.9318 16.7805C37.0058 16.2139 37.0431 15.6439 37.0431 15.0724C37.0431 13.9759 36.8961 12.8474 36.6061 11.7181C35.6527 8.00853 33.1525 4.87144 29.7468 3.1112C29.4503 2.95801 29.097 2.96338 28.8053 3.12555C28.5136 3.28778 28.3226 3.58521 28.2964 3.91791C28.0309 7.28895 26.2945 10.3559 23.5298 12.3342C23.4932 12.3606 23.4569 12.3873 23.4206 12.4139C23.3453 12.4689 23.2744 12.521 23.2081 12.5647C23.1978 12.5716 23.1875 12.5786 23.1774 12.5858C21.4386 13.8308 20.0039 15.4903 19.0282 17.3854C18.0368 19.3131 17.5341 21.3818 17.5341 23.5336C17.5341 24.6299 17.681 25.7583 17.9709 26.8879C19.5005 32.8417 24.8585 36.9999 31.0004 36.9999C38.4253 36.9999 44.4659 30.9589 44.4659 23.5336C44.4659 19.872 43.0159 16.4454 40.3829 13.8852Z" fill="#870DB1"/>
<circle cx="30" cy="23" r="4" fill="white"/>
<path d="M63.418 14.556V17.57H57.126V20.826H61.834V23.752H57.126V30H53.364V14.556H63.418ZM67.7873 16.448C67.1273 16.448 66.5846 16.2573 66.1593 15.876C65.7486 15.48 65.5433 14.996 65.5433 14.424C65.5433 13.8373 65.7486 13.3533 66.1593 12.972C66.5846 12.576 67.1273 12.378 67.7873 12.378C68.4326 12.378 68.9606 12.576 69.3713 12.972C69.7966 13.3533 70.0093 13.8373 70.0093 14.424C70.0093 14.996 69.7966 15.48 69.3713 15.876C68.9606 16.2573 68.4326 16.448 67.7873 16.448ZM69.6573 17.724V30H65.8953V17.724H69.6573ZM76.6455 19.77C77.0855 19.0953 77.6355 18.5673 78.2955 18.186C78.9555 17.79 79.6889 17.592 80.4955 17.592V21.574H79.4615C78.5229 21.574 77.8189 21.7793 77.3495 22.19C76.8802 22.586 76.6455 23.29 76.6455 24.302V30H72.8835V17.724H76.6455V19.77ZM94.3657 23.664C94.3657 24.016 94.3437 24.3827 94.2997 24.764H85.7857C85.8444 25.5267 86.0864 26.1133 86.5117 26.524C86.9517 26.92 87.487 27.118 88.1177 27.118C89.0564 27.118 89.709 26.722 90.0757 25.93H94.0797C93.8744 26.7367 93.5004 27.4627 92.9577 28.108C92.4297 28.7533 91.7624 29.2593 90.9557 29.626C90.149 29.9927 89.247 30.176 88.2497 30.176C87.047 30.176 85.9764 29.9193 85.0377 29.406C84.099 28.8927 83.3657 28.1593 82.8377 27.206C82.3097 26.2527 82.0457 25.138 82.0457 23.862C82.0457 22.586 82.3024 21.4713 82.8157 20.518C83.3437 19.5647 84.077 18.8313 85.0157 18.318C85.9544 17.8047 87.0324 17.548 88.2497 17.548C89.4377 17.548 90.4937 17.7973 91.4177 18.296C92.3417 18.7947 93.0604 19.506 93.5737 20.43C94.1017 21.354 94.3657 22.432 94.3657 23.664ZM90.5157 22.674C90.5157 22.0287 90.2957 21.5153 89.8557 21.134C89.4157 20.7527 88.8657 20.562 88.2057 20.562C87.575 20.562 87.0397 20.7453 86.5997 21.112C86.1744 21.4787 85.9104 21.9993 85.8077 22.674H90.5157ZM111.362 22.08C112.257 22.2707 112.976 22.718 113.518 23.422C114.061 24.1113 114.332 24.9033 114.332 25.798C114.332 27.0887 113.878 28.1153 112.968 28.878C112.074 29.626 110.82 30 109.206 30H102.012V14.556H108.964C110.534 14.556 111.758 14.9153 112.638 15.634C113.533 16.3527 113.98 17.328 113.98 18.56C113.98 19.4693 113.738 20.2247 113.254 20.826C112.785 21.4273 112.154 21.8453 111.362 22.08ZM105.774 20.804H108.238C108.854 20.804 109.324 20.672 109.646 20.408C109.984 20.1293 110.152 19.726 110.152 19.198C110.152 18.67 109.984 18.2667 109.646 17.988C109.324 17.7093 108.854 17.57 108.238 17.57H105.774V20.804ZM108.546 26.964C109.177 26.964 109.661 26.8247 109.998 26.546C110.35 26.2527 110.526 25.8347 110.526 25.292C110.526 24.7493 110.343 24.324 109.976 24.016C109.624 23.708 109.133 23.554 108.502 23.554H105.774V26.964H108.546ZM116.266 23.84C116.266 22.5787 116.501 21.4713 116.97 20.518C117.454 19.5647 118.107 18.8313 118.928 18.318C119.75 17.8047 120.666 17.548 121.678 17.548C122.544 17.548 123.299 17.724 123.944 18.076C124.604 18.428 125.11 18.89 125.462 19.462V17.724H129.224V30H125.462V28.262C125.096 28.834 124.582 29.296 123.922 29.648C123.277 30 122.522 30.176 121.656 30.176C120.659 30.176 119.75 29.9193 118.928 29.406C118.107 28.878 117.454 28.1373 116.97 27.184C116.501 26.216 116.266 25.1013 116.266 23.84ZM125.462 23.862C125.462 22.9233 125.198 22.1827 124.67 21.64C124.157 21.0973 123.526 20.826 122.778 20.826C122.03 20.826 121.392 21.0973 120.864 21.64C120.351 22.168 120.094 22.9013 120.094 23.84C120.094 24.7787 120.351 25.5267 120.864 26.084C121.392 26.6267 122.03 26.898 122.778 26.898C123.526 26.898 124.157 26.6267 124.67 26.084C125.198 25.5413 125.462 24.8007 125.462 23.862ZM139.926 17.592C141.363 17.592 142.507 18.0613 143.358 19C144.223 19.924 144.656 21.2 144.656 22.828V30H140.916V23.334C140.916 22.5127 140.703 21.8747 140.278 21.42C139.853 20.9653 139.281 20.738 138.562 20.738C137.843 20.738 137.271 20.9653 136.846 21.42C136.421 21.8747 136.208 22.5127 136.208 23.334V30H132.446V17.724H136.208V19.352C136.589 18.8093 137.103 18.384 137.748 18.076C138.393 17.7533 139.119 17.592 139.926 17.592ZM155.272 30L151.532 24.852V30H147.77V13.72H151.532V22.718L155.25 17.724H159.892L154.788 23.884L159.936 30H155.272Z" fill="white"/>
</svg>
